# xmcd
#
# Track frame offsets:
#	150
#	19598
#	33469
#	50849
#	70165
#	82977
#	92439
#	110954
#	125974
#	132343
#	156884
#	166619
#	174967
#	192086
#	204735
#	231234
#
# Disc length: 3231 seconds
#
# Revision: 1
# Processed by: cddbd v1.4PL0 Copyright (c) Steve Scherf et al.
# Submitted via: EasyCDDAExtractor 5.1.0
#
DISCID=d90c9d10
DTITLE=compilation disc - 2000 choristes
DYEAR=1900
DGENRE=Country
TTITLE0=2000 voix pour l'an 2000
TTITLE1=kanta mende berria
TTITLE2=priere
TTITLE3=mendeak azken hurratsak
TTITLE4=zortzi kanon
TTITLE5=alleluia
TTITLE6=nany
TTITLE7=kanta mende berria
TTITLE8=quoan bos gagna
TTITLE9=goizian argi hastian
TTITLE10=dus pastous a l'oumbrette
TTITLE11=kantuz
TTITLE12=aqueres mountagnes
TTITLE13=elurra teliatuan
TTITLE14=ikusten duzu goizean
TTITLE15=agur jaunak
EXTD=
EXTT0=
EXTT1=
EXTT2=
EXTT3=
EXTT4=
EXTT5=
EXTT6=
EXTT7=
EXTT8=
EXTT9=
EXTT10=
EXTT11=
EXTT12=
EXTT13=
EXTT14=
EXTT15=
PLAYORDER=
